<?xml version="1.0" encoding="UTF-8"?>
<svg height="80" viewBox="0 0 80 80" width="80" xmlns="http://www.w3.org/2000/svg">
  <g fill="none" fill-rule="evenodd"><path d="m59.1864831 17.8035058h-25.3110857c0-1.5457861-1.2589714-2.7996897-2.8126753-2.7996897h-11.2492052c-1.5529559 0-2.8126753 1.253159-2.8126753 2.7996897v8.3983247c0 1.5472753 1.2589714 2.8004343 2.8126753 2.8004343h39.3737143c1.5529558 0 2.8126753-1.253159 2.8126753-2.8004343v-5.5986349c-.0007481-1.5465308-1.2597195-2.7996898-2.8134234-2.7996898z" fill="#cca352"/><path d="m56.3745558 20.602451h-33.7491116c-1.5529559 0-2.8126754 1.253159-2.8126754 2.7996897v2.7996898c0 1.5472753 1.2589715 2.8004343 2.8126754 2.8004343h33.7483636c1.5529558 0 2.8126753-1.253159 2.8126753-2.8004343v-2.7996898c0-1.5457861-1.2589714-2.7996897-2.8119273-2.7996897z" fill="#fff"/><path d="m59.1864831 23.4021407h-39.3729662c-1.5529559 0-2.8126753 1.253159-2.8126753 2.7996898v27.9954083c0 1.5442969 1.2589714 2.7996897 2.8126753 2.7996897h39.3737143c1.5529558 0 2.8126753-1.2546482 2.8126753-2.7996897v-27.9961529c-.0007481-1.5457862-1.2597195-2.7989452-2.8134234-2.7989452z" fill="#fc6"/></g>
</svg>