<?xml version="1.0" encoding="UTF-8"?>
<svg width="40px" height="40px" viewBox="0 0 40 40" version="1.1" xmlns="http://www.w3.org/2000/svg" xmlns:xlink="http://www.w3.org/1999/xlink">
    <!-- Generator: Sketch 52.5 (67469) - http://www.bohemiancoding.com/sketch -->
    <title>ic_pop_back_ligth</title>
    <desc>Created with Sketch.</desc>
    <g id="页面-1" stroke="none" stroke-width="1" fill="none" fill-rule="evenodd">
        <g id="4-文件管理" transform="translate(-400.000000, -244.000000)">
            <g id="分组-22" transform="translate(360.000000, 155.000000)">
                <g id="编组-2" transform="translate(60.000000, 109.000000) scale(1, -1) rotate(-90.000000) translate(-60.000000, -109.000000) translate(40.000000, 89.000000)">
                    <rect id="矩形" x="10" y="10" width="20" height="20"></rect>
                    <path d="M25.0710678,18 L25.0710678,26 C25.0710678,26.5522847 24.6233526,27 24.0710678,27 C23.5187831,27 23.0710678,26.5522847 23.0710678,26 L23.0710678,19 L16.0710678,19 C15.5187831,19 15.0710678,18.5522847 15.0710678,18 C15.0710678,17.4477153 15.5187831,17 16.0710678,17 L24.0710678,17 C24.6233526,17 25.0710678,17.4477153 25.0710678,18 Z" id="形状结合备份-47" fill="#7284FB" transform="translate(20.071068, 22.000000) scale(1, -1) rotate(-223.000000) translate(-20.071068, -22.000000) "></path>
                </g>
            </g>
        </g>
    </g>
</svg>