<?xml version="1.0" encoding="UTF-8"?>
<svg height="40" viewBox="0 0 40 40" width="40" xmlns="http://www.w3.org/2000/svg">
  <path d="m17.5833333 16.6875026v-1.9983036c0-1.0603867.8596133-1.92 1.92-1.92.5019087 0 .9838634.1965369 1.3426448.5475187l4.9177077 4.810801c.7580005.7415222.7713587 1.9571256.0298365 2.7151261-.0098359.0100545-.019782.0200006-.0298365.0298365l-4.9177077 4.810801c-.7580005.7415222-1.9736039.7281639-2.7151261-.0298366-.3509818-.3587814-.5475187-.8407361-.5475187-1.3426447v-1.9983036c-.0011109.0000017-.002222.0000026-.0033333.0000026h-7.66c-1.06038672 0-1.92-.8596133-1.92-1.92v-1.785c0-1.0603867.85961328-1.92 1.92-1.92h7.66c.0011113 0 .0022224.0000009.0033333.0000028zm12.4583334 10.3124974c-.5292729 0-.9583334-.4290604-.9583334-.9583333v-13.0833334c0-.5292729.4290605-.9583333.9583334-.9583333s.9583333.4290604.9583333.9583333v13.0833334c0 .5292729-.4290604.9583333-.9583333.9583333z" fill="#fff" fill-rule="evenodd" transform="matrix(0 1 -1 0 39 0)"/>
</svg>