<?xml version="1.0" encoding="UTF-8"?>
<svg height="40" viewBox="0 0 40 40" width="40" xmlns="http://www.w3.org/2000/svg">
  <path d="m17.7777778 10.2v-1.1c0-.60751322.4924868-1.1 1.1-1.1h2.2444444c.6075132 0 1.1.49248678 1.1 1.1v1.1h6.6777778c.6075132 0 1.1.4924868 1.1 1.1s-.4924868 1.1-1.1 1.1h-1.1222222v15.4c0 1.2150264-.9849736 2.2-2.2 2.2h-11.1555556c-1.2150264 0-2.2-.9849736-2.2-2.2v-15.4h-1.1222222c-.6075132 0-1.1-.4924868-1.1-1.1s.4924868-1.1 1.1-1.1zm2.2222222 5.5c-.6136497 0-1.1111111.4974614-1.1111111 1.1111111v6.5777778c0 .6136497.4974614 1.1111111 1.1111111 1.1111111s1.1111111-.4974614 1.1111111-1.1111111v-6.5777778c0-.6136497-.4974614-1.1111111-1.1111111-1.1111111zm4.4444444 0c-.6136497 0-1.1111111.4974614-1.1111111 1.1111111v6.5777778c0 .6136497.4974614 1.1111111 1.1111111 1.1111111.6136498 0 1.1111112-.4974614 1.1111112-1.1111111v-6.5777778c0-.6136497-.4974614-1.1111111-1.1111112-1.1111111zm-8.8888888 0c-.6136498 0-1.1111112.4974614-1.1111112 1.1111111v6.5777778c0 .6136497.4974614 1.1111111 1.1111112 1.1111111.6136497 0 1.1111111-.4974614 1.1111111-1.1111111v-6.5777778c0-.6136497-.4974614-1.1111111-1.1111111-1.1111111z" fill="#fff" fill-rule="evenodd"/>
</svg>