<?xml version="1.0" encoding="UTF-8"?>
<svg height="40" viewBox="0 0 40 40" width="40" xmlns="http://www.w3.org/2000/svg" xmlns:xlink="http://www.w3.org/1999/xlink">
  <mask id="a" fill="#fff">
    <path d="m0 0h40v40h-40z" fill="#fff" fill-rule="evenodd"/>
  </mask>
  <path d="m27.899729 26.9476245v-12.895249h-3.8232926c-.830794 0-1.5042857-.6734917-1.5042857-1.5042858v-.043804c0-.830794.6734917-1.5042857 1.5042857-1.5042857h5.3383121c.4038901 0 .7706032.1591739 1.0408304.418213.3325981.2759269.5444211.6923757.5444211 1.1582983v15.8926766c0 .7295716-.5193752 1.3378366-1.2085571 1.4752263-.129321.0362181-.2656829.0555858-.4065684.0555858h-5.338312c-.8307941 0-1.5042857-.6734917-1.5042857-1.5042857v-.043804c0-.8307941.6734916-1.5042858 1.5042857-1.5042858zm-13.5099156-4.8985871 3.8993893 3.8993893c.5874601.5874602.5874601 1.5399212 0 2.1273813l-.0309741.0309741c-.5874601.5874601-1.5399211.5874601-2.1273813 0l-6.5766679-6.5766679-.06484139-.0648414c-.58746012-.5874601-.58746012-1.5399212 0-2.1273813l6.50604029-6.5060403c.5874601-.5874601 1.5399211-.5874601 2.1273813 0l.0648413.0648414c.5874602.5874601.5874602 1.5399212 0 2.1273813l-3.972588 3.972588h9.7359859c.8307941 0 1.5042858.6734917 1.5042858 1.5042857v.0438041c0 .830794-.6734917 1.5042857-1.5042858 1.5042857z" fill="#fff" fill-rule="evenodd" mask="url(#a)" transform="matrix(0 1 -1 0 40.5 .5)"/>
</svg>